# 3ds Max Wavefront OBJ Exporter v0.97b - (c)2007 guruware
# File Created: 26.09.2018 16:50:41

mtllib Barrera.mtl

#
# object Box001
#

v  50.0000 30.0000 1.0000
v  -50.0000 30.0000 1.0000
v  -50.0000 30.0000 -1.0000
v  50.0000 30.0000 -1.0000
v  50.0000 38.0000 1.0000
v  50.0000 38.0000 -1.0000
v  -50.0000 38.0000 -1.0000
v  -50.0000 38.0000 1.0000
v  40.9499 29.9697 4.8221
v  40.9499 26.4697 5.9649
v  40.9499 26.4697 -5.9649
v  40.9499 29.9697 -4.8221
v  39.9499 29.9697 4.8221
v  39.9499 29.9697 -4.8221
v  39.9499 26.4697 -5.9649
v  39.9499 26.4697 5.9649
v  40.9613 4.4046 -13.0271
v  40.9613 4.4046 13.0651
v  39.9613 4.4046 13.0651
v  39.9613 4.4046 -13.0271
v  40.9613 7.9046 -11.9029
v  39.9613 7.9046 -11.9029
v  39.9613 7.9046 11.9408
v  40.9613 7.9046 11.9408
v  37.9527 0.0000 14.5547
v  39.9527 0.0000 14.5547
v  39.9527 30.0000 4.7684
v  37.9527 30.0000 4.7684
v  37.9527 30.0000 1.0000
v  37.9527 0.0000 10.2937
v  39.9527 0.0000 10.2937
v  39.9527 36.4994 1.0001
v  39.9527 31.7757 0.9999
v  37.9527 31.7757 0.9999
v  37.9527 36.4994 1.0001
v  39.9527 30.0000 1.0000
v  37.9420 29.9697 4.8221
v  37.9420 26.4697 5.9649
v  37.9420 26.4697 -5.9649
v  37.9420 29.9697 -4.8221
v  36.9420 29.9697 4.8221
v  36.9420 29.9697 -4.8221
v  36.9420 26.4697 -5.9649
v  36.9420 26.4697 5.9649
v  37.9219 4.4046 -13.0271
v  37.9219 4.4046 13.0651
v  36.9219 4.4046 13.0651
v  36.9219 4.4046 -13.0271
v  37.9219 7.9046 -11.9029
v  36.9219 7.9046 -11.9029
v  36.9219 7.9046 11.9408
v  37.9219 7.9046 11.9408
v  39.9527 30.0000 -4.7684
v  39.9527 0.0000 -14.5547
v  37.9527 0.0000 -14.5547
v  37.9527 30.0000 -4.7684
v  37.9527 30.0000 -1.0000
v  37.9527 0.0000 -10.2937
v  39.9527 0.0000 -10.2937
v  37.9527 31.7757 -0.9999
v  39.9527 31.7757 -0.9999
v  39.9527 36.4994 -1.0001
v  37.9527 36.4994 -1.0001
v  39.9527 30.0000 -1.0000
v  -36.9675 29.9697 4.8221
v  -36.9675 26.4697 5.9649
v  -36.9675 26.4697 -5.9649
v  -36.9675 29.9697 -4.8221
v  -37.9675 29.9697 4.8221
v  -37.9675 29.9697 -4.8221
v  -37.9675 26.4697 -5.9649
v  -37.9675 26.4697 5.9649
v  -36.9561 4.4046 -13.0271
v  -36.9561 4.4046 13.0651
v  -37.9561 4.4046 13.0651
v  -37.9561 4.4046 -13.0271
v  -36.9561 7.9046 -11.9029
v  -37.9561 7.9046 -11.9029
v  -37.9561 7.9046 11.9408
v  -36.9561 7.9046 11.9408
v  -39.9647 0.0000 14.5547
v  -37.9647 0.0000 14.5547
v  -37.9647 30.0000 4.7684
v  -39.9647 30.0000 4.7684
v  -39.9647 30.0000 1.0000
v  -39.9647 0.0000 10.2937
v  -37.9647 0.0000 10.2937
v  -37.9647 36.4994 1.0001
v  -37.9647 31.7757 0.9999
v  -39.9647 31.7757 0.9999
v  -39.9647 36.4994 1.0001
v  -37.9647 30.0000 1.0000
v  -39.9753 29.9697 4.8221
v  -39.9753 26.4697 5.9649
v  -39.9753 26.4697 -5.9649
v  -39.9753 29.9697 -4.8221
v  -40.9753 29.9697 4.8221
v  -40.9753 29.9697 -4.8221
v  -40.9753 26.4697 -5.9649
v  -40.9753 26.4697 5.9649
v  -39.9955 4.4046 -13.0271
v  -39.9955 4.4046 13.0651
v  -40.9955 4.4046 13.0651
v  -40.9955 4.4046 -13.0271
v  -39.9955 7.9046 -11.9029
v  -40.9955 7.9046 -11.9029
v  -40.9955 7.9046 11.9408
v  -39.9955 7.9046 11.9408
v  -37.9647 30.0000 -4.7684
v  -37.9647 0.0000 -14.5547
v  -39.9647 0.0000 -14.5547
v  -39.9647 30.0000 -4.7684
v  -39.9647 30.0000 -1.0000
v  -39.9647 0.0000 -10.2937
v  -37.9647 0.0000 -10.2937
v  -39.9647 31.7757 -0.9999
v  -37.9647 31.7757 -0.9999
v  -37.9647 36.4994 -1.0001
v  -39.9647 36.4994 -1.0001
v  -37.9647 30.0000 -1.0000
# 120 vertices

vn 0.0000 -1.0000 -0.0000
vn 0.0000 1.0000 -0.0000
vn 1.0000 0.0000 -0.0000
vn -0.0000 0.0000 -1.0000
vn -1.0000 0.0000 0.0000
vn 0.0000 0.0000 1.0000
vn 0.0000 0.3104 0.9506
vn -0.0000 1.0000 -0.0000
vn -0.0000 0.3104 -0.9506
vn 0.0000 0.3058 0.9521
vn -0.0000 0.3058 -0.9521
vn 0.0000 0.3101 0.9507
vn 0.0000 0.4081 0.9129
vn -0.0000 -0.0000 -1.0000
vn 0.0000 -0.0000 -1.0000
vn 0.0000 0.5016 0.8651
vn -0.0000 -0.0001 -1.0000
vn -0.0000 -0.2959 -0.9552
vn 0.0000 0.4081 -0.9129
vn -0.0000 0.3101 -0.9507
vn -0.0000 -0.0000 1.0000
vn 0.0000 -0.0000 1.0000
vn -0.0000 0.5016 -0.8651
vn 0.0000 -0.0001 1.0000
vn 0.0000 -0.2959 0.9552
# 25 vertex normals

vt 0.0005 0.9579 0.0000
vt 0.0005 0.0048 0.0000
vt 0.0196 0.0048 0.0000
vt 0.0196 0.9579 0.0000
vt 0.0220 0.0048 0.0000
vt 0.0410 0.0048 0.0000
vt 0.0410 0.9579 0.0000
vt 0.0220 0.9579 0.0000
vt 0.1509 0.7440 0.0000
vt 0.1700 0.7440 0.0000
vt 0.1700 0.8202 0.0000
vt 0.1509 0.8202 0.0000
vt 0.0435 0.0865 0.0000
vt 0.9965 0.0865 0.0000
vt 0.9965 0.1627 0.0000
vt 0.0435 0.1627 0.0000
vt 0.1294 0.7440 0.0000
vt 0.1485 0.7440 0.0000
vt 0.1485 0.8202 0.0000
vt 0.1294 0.8202 0.0000
vt 0.0435 0.0005 0.0000
vt 0.9965 0.0005 0.0000
vt 0.9965 0.0767 0.0000
vt 0.0435 0.0767 0.0000
vt 0.2821 0.5539 0.0000
vt 0.2713 0.5205 0.0000
vt 0.3850 0.5205 0.0000
vt 0.3741 0.5539 0.0000
vt 0.3741 0.6699 0.0000
vt 0.2821 0.6699 0.0000
vt 0.2713 0.6366 0.0000
vt 0.3850 0.6366 0.0000
vt 0.3850 0.6332 0.0000
vt 0.2713 0.6332 0.0000
vt 0.2713 0.6237 0.0000
vt 0.3850 0.6237 0.0000
vt 0.2367 0.7409 0.0000
vt 0.2025 0.7409 0.0000
vt 0.2025 0.7311 0.0000
vt 0.2367 0.7311 0.0000
vt 0.4921 0.5773 0.0000
vt 0.4002 0.5773 0.0000
vt 0.4002 0.5678 0.0000
vt 0.4921 0.5678 0.0000
vt 0.1722 0.8827 0.0000
vt 0.1380 0.8827 0.0000
vt 0.1380 0.8729 0.0000
vt 0.1722 0.8729 0.0000
vt 0.1588 0.5377 0.0000
vt 0.1588 0.7320 0.0000
vt 0.1466 0.7320 0.0000
vt 0.1466 0.5377 0.0000
vt 0.2620 0.7153 0.0000
vt 0.2498 0.7153 0.0000
vt 0.2498 0.5377 0.0000
vt 0.2620 0.5377 0.0000
vt 0.1048 0.9458 0.0000
vt 0.0950 0.9458 0.0000
vt 0.0950 0.9116 0.0000
vt 0.1048 0.9116 0.0000
vt 0.6127 0.2364 0.0000
vt 0.3892 0.2364 0.0000
vt 0.3787 0.2025 0.0000
vt 0.6232 0.2025 0.0000
vt 0.2295 0.7997 0.0000
vt 0.2197 0.7997 0.0000
vt 0.2197 0.7655 0.0000
vt 0.2295 0.7655 0.0000
vt 0.5482 0.4298 0.0000
vt 0.3248 0.4298 0.0000
vt 0.3142 0.3959 0.0000
vt 0.5587 0.3959 0.0000
vt 0.0632 0.1724 0.0000
vt 0.0435 0.1724 0.0000
vt 0.0435 0.4682 0.0000
vt 0.0632 0.4682 0.0000
vt 0.7311 0.1767 0.0000
vt 0.8244 0.4626 0.0000
vt 0.8603 0.4626 0.0000
vt 0.7717 0.1767 0.0000
vt 0.0005 0.9589 0.0000
vt 0.0005 0.9995 0.0000
vt 0.0196 0.9995 0.0000
vt 0.0196 0.9589 0.0000
vt 0.1055 0.9091 0.0000
vt 0.1055 0.8641 0.0000
vt 0.0865 0.8641 0.0000
vt 0.0865 0.9091 0.0000
vt 0.3403 0.1810 0.0000
vt 0.2997 0.1810 0.0000
vt 0.2111 0.4669 0.0000
vt 0.2470 0.4669 0.0000
vt 0.0632 0.5323 0.0000
vt 0.0435 0.5323 0.0000
vt 0.8603 0.4795 0.0000
vt 0.8603 0.5246 0.0000
vt 0.2111 0.4838 0.0000
vt 0.2111 0.5289 0.0000
vt 0.0865 0.8471 0.0000
vt 0.1055 0.8471 0.0000
vt 0.0630 0.8346 0.0000
vt 0.0630 0.5420 0.0000
vt 0.0435 0.5420 0.0000
vt 0.0435 0.8346 0.0000
vt 0.2821 0.6226 0.0000
vt 0.2713 0.5893 0.0000
vt 0.3850 0.5893 0.0000
vt 0.3741 0.6226 0.0000
vt 0.3827 0.5195 0.0000
vt 0.2907 0.5195 0.0000
vt 0.2799 0.4861 0.0000
vt 0.3935 0.4861 0.0000
vt 0.3850 0.7149 0.0000
vt 0.2713 0.7149 0.0000
vt 0.2713 0.7053 0.0000
vt 0.3850 0.7053 0.0000
vt 0.2797 0.7409 0.0000
vt 0.2455 0.7409 0.0000
vt 0.2455 0.7311 0.0000
vt 0.2797 0.7311 0.0000
vt 0.2944 0.7277 0.0000
vt 0.2025 0.7277 0.0000
vt 0.2025 0.7182 0.0000
vt 0.2944 0.7182 0.0000
vt 0.0863 0.9214 0.0000
vt 0.0521 0.9214 0.0000
vt 0.0521 0.9116 0.0000
vt 0.0863 0.9116 0.0000
vt 0.1760 0.5377 0.0000
vt 0.1760 0.7320 0.0000
vt 0.1638 0.7320 0.0000
vt 0.1638 0.5377 0.0000
vt 0.2448 0.7153 0.0000
vt 0.2326 0.7153 0.0000
vt 0.2326 0.5377 0.0000
vt 0.2448 0.5377 0.0000
vt 0.1822 0.8513 0.0000
vt 0.1724 0.8513 0.0000
vt 0.1724 0.8171 0.0000
vt 0.1822 0.8171 0.0000
vt 0.5869 0.3138 0.0000
vt 0.3634 0.3138 0.0000
vt 0.3529 0.2799 0.0000
vt 0.5974 0.2799 0.0000
vt 0.2166 0.7997 0.0000
vt 0.2068 0.7997 0.0000
vt 0.2068 0.7655 0.0000
vt 0.2166 0.7655 0.0000
vt 0.5353 0.4685 0.0000
vt 0.3119 0.4685 0.0000
vt 0.3013 0.4346 0.0000
vt 0.5458 0.4346 0.0000
vt 0.0865 0.4682 0.0000
vt 0.0865 0.1724 0.0000
vt 0.1062 0.1724 0.0000
vt 0.1062 0.4682 0.0000
vt 0.9033 0.4583 0.0000
vt 0.8674 0.4583 0.0000
vt 0.7741 0.1724 0.0000
vt 0.8147 0.1724 0.0000
vt 0.1270 0.8878 0.0000
vt 0.1079 0.8878 0.0000
vt 0.1079 0.8471 0.0000
vt 0.1270 0.8471 0.0000
vt 0.1724 0.7609 0.0000
vt 0.1915 0.7609 0.0000
vt 0.1915 0.8059 0.0000
vt 0.1724 0.8059 0.0000
vt 0.2541 0.4669 0.0000
vt 0.3426 0.1810 0.0000
vt 0.3833 0.1810 0.0000
vt 0.2900 0.4669 0.0000
vt 0.1062 0.5323 0.0000
vt 0.0865 0.5323 0.0000
vt 0.9033 0.4752 0.0000
vt 0.9033 0.5203 0.0000
vt 0.2541 0.4838 0.0000
vt 0.2541 0.5289 0.0000
vt 0.1724 0.7440 0.0000
vt 0.1915 0.7440 0.0000
vt 0.1079 0.5420 0.0000
vt 0.1274 0.5420 0.0000
vt 0.1274 0.8346 0.0000
vt 0.1079 0.8346 0.0000
vt 0.2821 0.5883 0.0000
vt 0.2713 0.5549 0.0000
vt 0.3850 0.5549 0.0000
vt 0.3741 0.5883 0.0000
vt 0.3741 0.7043 0.0000
vt 0.2821 0.7043 0.0000
vt 0.2713 0.6709 0.0000
vt 0.3850 0.6709 0.0000
vt 0.4021 0.4828 0.0000
vt 0.2884 0.4828 0.0000
vt 0.2884 0.4732 0.0000
vt 0.4021 0.4732 0.0000
vt 0.0863 0.9472 0.0000
vt 0.0521 0.9472 0.0000
vt 0.0521 0.9374 0.0000
vt 0.0863 0.9374 0.0000
vt 0.4921 0.5644 0.0000
vt 0.4002 0.5644 0.0000
vt 0.4002 0.5549 0.0000
vt 0.4921 0.5549 0.0000
vt 0.2367 0.7538 0.0000
vt 0.2025 0.7538 0.0000
vt 0.2025 0.7440 0.0000
vt 0.2367 0.7440 0.0000
vt 0.1416 0.5377 0.0000
vt 0.1416 0.7320 0.0000
vt 0.1294 0.7320 0.0000
vt 0.1294 0.5377 0.0000
vt 0.2104 0.7153 0.0000
vt 0.1982 0.7153 0.0000
vt 0.1982 0.5377 0.0000
vt 0.2104 0.5377 0.0000
vt 0.2080 0.8427 0.0000
vt 0.1982 0.8427 0.0000
vt 0.1982 0.8085 0.0000
vt 0.2080 0.8085 0.0000
vt 0.5740 0.3525 0.0000
vt 0.3506 0.3525 0.0000
vt 0.3400 0.3185 0.0000
vt 0.5845 0.3185 0.0000
vt 0.2037 0.7997 0.0000
vt 0.1939 0.7997 0.0000
vt 0.1939 0.7655 0.0000
vt 0.2037 0.7655 0.0000
vt 0.5611 0.3911 0.0000
vt 0.3377 0.3911 0.0000
vt 0.3271 0.3572 0.0000
vt 0.5716 0.3572 0.0000
vt 0.1277 0.1724 0.0000
vt 0.1079 0.1724 0.0000
vt 0.1079 0.4682 0.0000
vt 0.1277 0.4682 0.0000
vt 0.8171 0.1681 0.0000
vt 0.9103 0.4540 0.0000
vt 0.9462 0.4540 0.0000
vt 0.8577 0.1681 0.0000
vt 0.1294 0.8300 0.0000
vt 0.1294 0.8706 0.0000
vt 0.1485 0.8706 0.0000
vt 0.1485 0.8300 0.0000
vt 0.0840 0.9091 0.0000
vt 0.0840 0.8641 0.0000
vt 0.0650 0.8641 0.0000
vt 0.0650 0.9091 0.0000
vt 0.2973 0.1810 0.0000
vt 0.2567 0.1810 0.0000
vt 0.1681 0.4669 0.0000
vt 0.2040 0.4669 0.0000
vt 0.1277 0.5323 0.0000
vt 0.1079 0.5323 0.0000
vt 0.9463 0.4710 0.0000
vt 0.9462 0.5160 0.0000
vt 0.1681 0.4838 0.0000
vt 0.1681 0.5289 0.0000
vt 0.0650 0.8471 0.0000
vt 0.0840 0.8471 0.0000
vt 0.0845 0.8346 0.0000
vt 0.0845 0.5420 0.0000
vt 0.0650 0.5420 0.0000
vt 0.0650 0.8346 0.0000
vt 0.4068 0.5539 0.0000
vt 0.3959 0.5205 0.0000
vt 0.5096 0.5205 0.0000
vt 0.4987 0.5539 0.0000
vt 0.5073 0.5195 0.0000
vt 0.4154 0.5195 0.0000
vt 0.4045 0.4861 0.0000
vt 0.5182 0.4861 0.0000
vt 0.5268 0.4828 0.0000
vt 0.4131 0.4828 0.0000
vt 0.4131 0.4732 0.0000
vt 0.5268 0.4732 0.0000
vt 0.6837 0.1736 0.0000
vt 0.6495 0.1736 0.0000
vt 0.6495 0.1638 0.0000
vt 0.6837 0.1638 0.0000
vt 0.4921 0.5902 0.0000
vt 0.4002 0.5902 0.0000
vt 0.4002 0.5807 0.0000
vt 0.4921 0.5807 0.0000
vt 0.0863 0.9343 0.0000
vt 0.0521 0.9343 0.0000
vt 0.0521 0.9245 0.0000
vt 0.0863 0.9245 0.0000
vt 0.1932 0.5377 0.0000
vt 0.1932 0.7320 0.0000
vt 0.1810 0.7320 0.0000
vt 0.1810 0.5377 0.0000
vt 0.2276 0.7153 0.0000
vt 0.2154 0.7153 0.0000
vt 0.2154 0.5377 0.0000
vt 0.2276 0.5377 0.0000
vt 0.1951 0.8513 0.0000
vt 0.1853 0.8513 0.0000
vt 0.1853 0.8171 0.0000
vt 0.1951 0.8171 0.0000
vt 0.5998 0.2751 0.0000
vt 0.3763 0.2751 0.0000
vt 0.3658 0.2412 0.0000
vt 0.6103 0.2412 0.0000
vt 0.2209 0.8427 0.0000
vt 0.2111 0.8427 0.0000
vt 0.2111 0.8085 0.0000
vt 0.2209 0.8085 0.0000
vt 0.6299 0.1977 0.0000
vt 0.4064 0.1977 0.0000
vt 0.3959 0.1638 0.0000
vt 0.6404 0.1638 0.0000
vt 0.0650 0.4682 0.0000
vt 0.0650 0.1724 0.0000
vt 0.0847 0.1724 0.0000
vt 0.0847 0.4682 0.0000
vt 0.9892 0.4497 0.0000
vt 0.9533 0.4497 0.0000
vt 0.8600 0.1638 0.0000
vt 0.9007 0.1638 0.0000
vt 0.1700 0.8706 0.0000
vt 0.1509 0.8706 0.0000
vt 0.1509 0.8300 0.0000
vt 0.1700 0.8300 0.0000
vt 0.0435 0.8641 0.0000
vt 0.0625 0.8641 0.0000
vt 0.0625 0.9091 0.0000
vt 0.0435 0.9091 0.0000
vt 0.1294 0.4583 0.0000
vt 0.2180 0.1724 0.0000
vt 0.2586 0.1724 0.0000
vt 0.1653 0.4583 0.0000
vt 0.0847 0.5323 0.0000
vt 0.0650 0.5323 0.0000
vt 0.9892 0.4667 0.0000
vt 0.9892 0.5117 0.0000
vt 0.1294 0.4752 0.0000
vt 0.1294 0.5203 0.0000
vt 0.0435 0.8471 0.0000
vt 0.0625 0.8471 0.0000
vt 0.0865 0.5420 0.0000
vt 0.1060 0.5420 0.0000
vt 0.1060 0.8346 0.0000
vt 0.0865 0.8346 0.0000
# 344 texture coords

g Box001
usemtl wire_088144225
s 2
f 1/1/1 2/2/1 3/3/1 
f 3/3/1 4/4/1 1/1/1 
s 4
f 5/5/2 6/6/2 7/7/2 
f 7/7/2 8/8/2 5/5/2 
s 8
f 1/9/3 4/10/3 6/11/3 
f 6/11/3 5/12/3 1/9/3 
s 16
f 4/13/4 3/14/4 7/15/4 
f 7/15/4 6/16/4 4/13/4 
s 32
f 3/17/5 2/18/5 8/19/5 
f 8/19/5 7/20/5 3/17/5 
s 64
f 2/21/6 1/22/6 5/23/6 
f 5/23/6 8/24/6 2/21/6 
s 2
f 9/25/3 10/26/3 11/27/3 
f 11/27/3 12/28/3 9/25/3 
s 1
f 13/29/5 14/30/5 15/31/5 
f 15/31/5 16/32/5 13/29/5 
s 16
f 16/33/1 15/34/1 11/35/1 
f 11/35/1 10/36/1 16/33/1 
s 32
f 13/37/7 16/38/7 10/39/7 
f 10/39/7 9/40/7 13/37/7 
s 4
f 14/41/8 13/42/8 9/43/8 
f 9/43/8 12/44/8 14/41/8 
s 8
f 15/45/9 14/46/9 12/47/9 
f 12/47/9 11/48/9 15/45/9 
s 32
f 17/49/1 18/50/1 19/51/1 
f 19/51/1 20/52/1 17/49/1 
s 8
f 21/53/2 22/54/2 23/55/2 
f 23/55/2 24/56/2 21/53/2 
s 16
f 24/57/10 23/58/10 19/59/10 
f 19/59/10 18/60/10 24/57/10 
s 2
f 21/61/3 24/62/3 18/63/3 
f 18/63/3 17/64/3 21/61/3 
s 4
f 22/65/11 21/66/11 17/67/11 
f 17/67/11 20/68/11 22/65/11 
s 1
f 23/69/5 22/70/5 20/71/5 
f 20/71/5 19/72/5 23/69/5 
s 4
f 25/73/12 26/74/12 27/75/13 
f 27/75/13 28/76/13 25/73/12 
s 8
f 25/77/5 28/78/5 29/79/5 
f 29/79/5 30/80/5 25/77/5 
s 32
f 25/81/1 30/82/1 31/83/1 
f 31/83/1 26/84/1 25/81/1 
s 16
f 32/85/4 33/86/14 34/87/15 
f 34/87/15 35/88/4 32/85/4 
s 2
f 26/89/3 31/90/3 36/91/3 
f 36/91/3 27/92/3 26/89/3 
s 4
f 35/93/16 28/76/13 27/75/13 
f 27/75/13 32/94/16 35/93/16 
s 8
f 34/95/5 29/79/5 28/78/5 
f 28/78/5 35/96/5 34/95/5 
s 2
f 27/92/3 36/91/3 33/97/3 
f 33/97/3 32/98/3 27/92/3 
s 16
f 29/99/17 34/87/15 33/86/14 
f 33/86/14 36/100/17 29/99/17 
s 1
f 36/101/18 31/102/18 30/103/18 
f 30/103/18 29/104/18 36/101/18 
s 2
f 37/105/3 38/106/3 39/107/3 
f 39/107/3 40/108/3 37/105/3 
s 1
f 41/109/5 42/110/5 43/111/5 
f 43/111/5 44/112/5 41/109/5 
s 16
f 44/113/1 43/114/1 39/115/1 
f 39/115/1 38/116/1 44/113/1 
s 32
f 41/117/7 44/118/7 38/119/7 
f 38/119/7 37/120/7 41/117/7 
s 4
f 42/121/8 41/122/8 37/123/8 
f 37/123/8 40/124/8 42/121/8 
s 8
f 43/125/9 42/126/9 40/127/9 
f 40/127/9 39/128/9 43/125/9 
s 32
f 45/129/1 46/130/1 47/131/1 
f 47/131/1 48/132/1 45/129/1 
s 8
f 49/133/2 50/134/2 51/135/2 
f 51/135/2 52/136/2 49/133/2 
s 16
f 52/137/10 51/138/10 47/139/10 
f 47/139/10 46/140/10 52/137/10 
s 2
f 49/141/3 52/142/3 46/143/3 
f 46/143/3 45/144/3 49/141/3 
s 4
f 50/145/11 49/146/11 45/147/11 
f 45/147/11 48/148/11 50/145/11 
s 1
f 51/149/5 50/150/5 48/151/5 
f 48/151/5 47/152/5 51/149/5 
s 4
f 53/153/19 54/154/20 55/155/20 
f 55/155/20 56/156/19 53/153/19 
s 8
f 57/157/5 56/158/5 55/159/5 
f 55/159/5 58/160/5 57/157/5 
s 32
f 59/161/1 58/162/1 55/163/1 
f 55/163/1 54/164/1 59/161/1 
s 16
f 60/165/21 61/166/22 62/167/6 
f 62/167/6 63/168/6 60/165/21 
s 2
f 64/169/3 59/170/3 54/171/3 
f 54/171/3 53/172/3 64/169/3 
s 4
f 53/153/19 56/156/19 63/173/23 
f 63/173/23 62/174/23 53/153/19 
s 8
f 56/158/5 57/157/5 60/175/5 
f 60/175/5 63/176/5 56/158/5 
s 2
f 61/177/3 64/169/3 53/172/3 
f 53/172/3 62/178/3 61/177/3 
s 16
f 61/166/22 60/165/21 57/179/24 
f 57/179/24 64/180/24 61/166/22 
s 1
f 58/181/25 59/182/25 64/183/25 
f 64/183/25 57/184/25 58/181/25 
s 2
f 65/185/3 66/186/3 67/187/3 
f 67/187/3 68/188/3 65/185/3 
s 1
f 69/189/5 70/190/5 71/191/5 
f 71/191/5 72/192/5 69/189/5 
s 16
f 72/193/1 71/194/1 67/195/1 
f 67/195/1 66/196/1 72/193/1 
s 32
f 69/197/7 72/198/7 66/199/7 
f 66/199/7 65/200/7 69/197/7 
s 4
f 70/201/8 69/202/8 65/203/8 
f 65/203/8 68/204/8 70/201/8 
s 8
f 71/205/9 70/206/9 68/207/9 
f 68/207/9 67/208/9 71/205/9 
s 32
f 73/209/1 74/210/1 75/211/1 
f 75/211/1 76/212/1 73/209/1 
s 8
f 77/213/2 78/214/2 79/215/2 
f 79/215/2 80/216/2 77/213/2 
s 16
f 80/217/10 79/218/10 75/219/10 
f 75/219/10 74/220/10 80/217/10 
s 2
f 77/221/3 80/222/3 74/223/3 
f 74/223/3 73/224/3 77/221/3 
s 4
f 78/225/11 77/226/11 73/227/11 
f 73/227/11 76/228/11 78/225/11 
s 1
f 79/229/5 78/230/5 76/231/5 
f 76/231/5 75/232/5 79/229/5 
s 4
f 81/233/12 82/234/12 83/235/13 
f 83/235/13 84/236/13 81/233/12 
s 8
f 81/237/5 84/238/5 85/239/5 
f 85/239/5 86/240/5 81/237/5 
s 32
f 81/241/1 86/242/1 87/243/1 
f 87/243/1 82/244/1 81/241/1 
s 16
f 88/245/4 89/246/14 90/247/15 
f 90/247/15 91/248/4 88/245/4 
s 2
f 82/249/3 87/250/3 92/251/3 
f 92/251/3 83/252/3 82/249/3 
s 4
f 91/253/16 84/236/13 83/235/13 
f 83/235/13 88/254/16 91/253/16 
s 8
f 90/255/5 85/239/5 84/238/5 
f 84/238/5 91/256/5 90/255/5 
s 2
f 83/252/3 92/251/3 89/257/3 
f 89/257/3 88/258/3 83/252/3 
s 16
f 85/259/17 90/247/15 89/246/14 
f 89/246/14 92/260/17 85/259/17 
s 1
f 92/261/18 87/262/18 86/263/18 
f 86/263/18 85/264/18 92/261/18 
s 2
f 93/265/3 94/266/3 95/267/3 
f 95/267/3 96/268/3 93/265/3 
s 1
f 97/269/5 98/270/5 99/271/5 
f 99/271/5 100/272/5 97/269/5 
s 16
f 100/273/1 99/274/1 95/275/1 
f 95/275/1 94/276/1 100/273/1 
s 32
f 97/277/7 100/278/7 94/279/7 
f 94/279/7 93/280/7 97/277/7 
s 4
f 98/281/8 97/282/8 93/283/8 
f 93/283/8 96/284/8 98/281/8 
s 8
f 99/285/9 98/286/9 96/287/9 
f 96/287/9 95/288/9 99/285/9 
s 32
f 101/289/1 102/290/1 103/291/1 
f 103/291/1 104/292/1 101/289/1 
s 8
f 105/293/2 106/294/2 107/295/2 
f 107/295/2 108/296/2 105/293/2 
s 16
f 108/297/10 107/298/10 103/299/10 
f 103/299/10 102/300/10 108/297/10 
s 2
f 105/301/3 108/302/3 102/303/3 
f 102/303/3 101/304/3 105/301/3 
s 4
f 106/305/11 105/306/11 101/307/11 
f 101/307/11 104/308/11 106/305/11 
s 1
f 107/309/5 106/310/5 104/311/5 
f 104/311/5 103/312/5 107/309/5 
s 4
f 109/313/19 110/314/20 111/315/20 
f 111/315/20 112/316/19 109/313/19 
s 8
f 113/317/5 112/318/5 111/319/5 
f 111/319/5 114/320/5 113/317/5 
s 32
f 115/321/1 114/322/1 111/323/1 
f 111/323/1 110/324/1 115/321/1 
s 16
f 116/325/21 117/326/22 118/327/6 
f 118/327/6 119/328/6 116/325/21 
s 2
f 120/329/3 115/330/3 110/331/3 
f 110/331/3 109/332/3 120/329/3 
s 4
f 109/313/19 112/316/19 119/333/23 
f 119/333/23 118/334/23 109/313/19 
s 8
f 112/318/5 113/317/5 116/335/5 
f 116/335/5 119/336/5 112/318/5 
s 2
f 117/337/3 120/329/3 109/332/3 
f 109/332/3 118/338/3 117/337/3 
s 16
f 117/326/22 116/325/21 113/339/24 
f 113/339/24 120/340/24 117/326/22 
s 1
f 114/341/25 115/342/25 120/343/25 
f 120/343/25 113/344/25 114/341/25 
# 188 faces

